<svg xmlns="http://www.w3.org/2000/svg" viewBox="0 0 250 250"><defs><clipPath id="a"><path d="M6.86 0h237.82v250H6.86z" style="fill:none"/></clipPath></defs><g style="clip-path:url(#a)"><path d="M184.18 105.71c.12-.01.23.07.25.18l3.36 17.65c.02.13-.07.25-.2.26-13.58 1.65-13.23 6.46-12.64 14.37.13 1.82.29 3.88.29 6.11 0 7.08-1.86 10.88-7.68 15.65-5.07 4.17-11.28 8.4-18.46 12.57-.09.06-.21.04-.28-.04-1.61-1.82-7.13-7.55-13.13-12.92-.11-.1-.09-.28.04-.36 7.96-4.67 14.84-9.49 18.45-12.93 3.37-3.2 3.4-6.57 2.21-12.49-.94-4.49-1.2-11.04 2.89-16.71 4.39-6.09 12.76-9.9 24.89-11.35m-7.72-28.72c-11.17 20.18-22.97 37.71-36.04 53.56l-.28.34.36.25c.06.04 5.93 4.09 9.63 7.78.54.54.84 1.54.41 2.29-.45.78-1.22 1.62-2.29 2.48-5.59 4.52-14.78 10.06-17.16 11.48-.13.08-.29.06-.4-.04-1.76-1.57-3.71-3.12-6.15-5.05-.54-.42-1.09-.87-1.68-1.33-4.27-3.39-10.35-7.56-11.74-8.49l-.74-.5.12.89c.95 7.12 1.75 13.63 2.37 19.34.5 4.55.94 8.8 1.32 13 .02.16-.1.29-.26.31-5.87.47-12.05 1.1-18.89 1.95l-.73.09c-.69.08-1.37.17-2.04.26a.284.284 0 0 1-.31-.22 638.03 638.03 0 0 0-3.66-15.83c-3-12.3-6.39-24.61-10.07-36.6l-.06-.18-.18-.07c-5.45-2.28-11.02-4.26-16.58-5.92-.19-.06-.22-.32-.04-.41 3.96-2.12 8.12-4.25 12.38-6.32 5.1-2.49 10.34-4.88 15.56-7.12 4.65-2.01 9.34-3.92 13.96-5.69.13-.05.28.03.31.17.79 4.24 1.56 8.57 2.29 12.88 1.04 6.07 2.03 12.27 2.95 18.44l.16 1.08.58-.93c2.68-4.3 5.3-8.66 7.78-12.97 5.34-9.24 10.43-18.83 15.11-28.51.04-.09.12-.15.21-.18 14.11-4.21 28.76-7.76 43.56-10.55.19-.04.34.17.24.34m-17.83 95.73c3.39-2.26 10.98-7.3 13.04-8.65.1-.07.24-.04.31.06 2.22 3.1 4.56 6.51 6.8 10.86.09.17-.06.37-.24.34-1.82-.3-5.38-.87-9.12-1.32-3.9-.47-8.22-.74-10.68-.87-.22-.01-.3-.3-.11-.42m65.37-93.72 17.04-.45a125.89 125.89 0 0 0-16.74-29.85c-4.95-.61-9.94-.94-14.99-.89-2.09.22-4.15.19-6.17-.09-4.38-.62-8.67-2.51-12.86-5.67-2.77-2.28-5.34-3.59-7.7-3.92-6.24-.88-13.86 8.1-22.86 26.94-1.98 4.01-3.08 6.87-5 10.92-2.58.24-5.84 1.73-8.04 2.03 3.25-4.53 6.45-9.11 9.5-13.84 4-6.48 7.13-13.43 9.37-20.85l.68-3c.71-5.05-.52-10.38-3.68-15.98-3.53-6.68-7.97-12.03-13.34-16.05-5.36-4.02-10.69-7.28-15.24-7.92-1.35-.19-1.89-.39-3.09-.39-25.19 1.96-48.02 10.59-67.74 23.8-7.38 4.81-13.5 11.08-18.37 18.81-.93 1.76-1.54 3.65-1.83 5.67-.35 2.53-.15 5.39.6 8.59 1.29 5.51 3.95 10.44 7.98 14.78 3.35 3.05 7.47 4.92 12.36 5.6 5.9.83 10.55.11 13.96-2.16.77-.58.46-4.49-1.35-5.09l-3.72-1.04-4.8-.67c-.8-.45-1.69-.95-2.08-1.87-.39-.91-.6-1.67-.53-2.18.14-1.01 0-2.4 1.35-3.42.77-.58 3.94-2.47 3.94-2.47 17.46-14.21 37.81-23.3 61.05-27.25l1.01.14c.31.22.49.46.54.72.05.26.13.58.25.94l-.07.51-3.92 5.89c-13.74 23.88-29.45 45.85-37.23 54.73-21.08 13.11-54.43 18.81-31.03 28.71.65.27 1.27.5 1.89.71-20.16 16.17-54.5 43.63-56.26 46.14 2.6 6.76 5.75 13.23 9.42 19.37.83.94 4.24 5.38 4.56 7.04 1.78 2.57 3.66 5.08 5.63 7.51 3.13-1.54 7.41-4.8 9.82-6.01 17.14-8.25 36.2-11.79 55.62-15.42l7.54-1.29c9.52-1.05 12.91-.59 19.41-1.17 3.06-.27-.21-22.89.66-24.03 6.83 4.2 23 21.85 27.8 23.49 6.01 2.02 14.77 1.18 26.22 2.19.22-.16-25.95 20.17-39.79 28.11-1.85.94-52.7 31.6-52.33 32.68.08.26.23.5.37.75 11.67 4.17 24.13 6.66 37.1 7.19 3.27-.99 14.97-3.29 18.49-5.03 8-3.17 23.43-11.68 30.71-15.82 22.59-14.01 42.23-31.52 58.94-52.55 6.72-7.47 11.97-16.1 15.75-25.88.81-2.12 1.36-4.19 1.65-6.21 1.14-8.09-1.53-15.68-8.01-22.78-6.48-7.09-12.07-11.32-16.78-12.67-4.71-1.35-33.46-9.53-33.69-9.83-8.54-2.59-2.19-7.63 2.12-13.32 4.66-5.02 8.42-4.42 16.58-4.99 2.96-.27 6.05-.61 9.29-1.01 3.23-.4 6.58-.71 10.05-.91" style="fill:#fff"/></g></svg>